<svg id="textos_nombres" data-name="textos nombres" xmlns="http://www.w3.org/2000/svg" viewBox="0 0 64 64"><defs><style>.cls-1{fill:#1fb1e6;}.cls-2{fill:#ebebeb;stroke:#999;stroke-miterlimit:10;}.cls-3{fill:none;}</style></defs><title>B006N_LB</title><path class="cls-1" d="M27.47,16.46H21l4.57-4.57a1,1,0,0,0-1.46-1.46L19.54,15V8.53a1,1,0,0,0-2.07,0V15l-4.58-4.57a1,1,0,0,0-1.47,1.46L16,16.46H9.53a1,1,0,0,0,0,2.07H16l-4.58,4.58a1,1,0,0,0,0,1.46,1.06,1.06,0,0,0,.74.3,1,1,0,0,0,.73-.3L17.47,20v6.46a1,1,0,1,0,2.07,0V20l4.57,4.57a1,1,0,0,0,.73.3,1,1,0,0,0,.73-1.76L21,18.53h6.47a1,1,0,0,0,0-2.07Z"/><path class="cls-2" d="M46.32,37.94V11.13a6.13,6.13,0,0,0-12.26,0V37.94A9.37,9.37,0,0,0,31,44.84a9.2,9.2,0,1,0,18.4,0A9.42,9.42,0,0,0,46.32,37.94Z"/><path class="cls-1" d="M41.72,40.55V33.26a1.44,1.44,0,0,0-1.53-1.53,1.54,1.54,0,0,0-1.53,1.53v7.29a4.46,4.46,0,0,0-3.06,4.28,4.6,4.6,0,1,0,6.12-4.28Z"/><rect class="cls-3" width="64" height="64"/></svg>